<!-- public/assets/placeholder.svg -->
<svg width="240" height="240" viewBox="0 0 448 512" fill="#888" xmlns="http://www.w3.org/2000/svg">
  <path d="M236.2 32.01C136.1 32.01 52.56 105.8 36.62 200.4c-3.938 23.7 15 45.64 39.12 45.64h96.27c13.5 0 25.16-8.375 29.42-21.12c10.5-30.13 38.88-51.4 72.8-51.4c29.5 0 55.18 17.13 67.27 41.91l-50.45 87.34c-10.87 18.83-30.89 30.29-52.71 30.29c-28.73 0-54.29-19.62-61.86-47.56c-4.109-15.38-18.19-25.63-33.67-25.63H55.98c-22.4 0-40.9 18.43-40.01 40.81c5.77 144.2 158.8 253.1 312.2 192.5c106.2-42.39 165.4-158.8 140.8-268.1C452.4 127.2 350.1 32.01 236.2 32.01z"/>
</svg>
